<svg width="26" height="26" viewBox="0 0 26 26" fill="none" xmlns="http://www.w3.org/2000/svg">
<path d="M10.1063 13.4644C10.5605 13.6379 11.091 13.4617 11.2221 12.9934C11.3006 12.7129 11.3427 12.4159 11.3427 12.1084C11.3427 10.3917 10.0293 9 8.40912 9C7.1764 9 6.12127 9.8056 5.6871 10.947C5.52371 11.3766 5.80146 11.8199 6.23076 11.9839L10.1063 13.4644Z" fill="white"/>
<path d="M15.9592 13.4644C15.505 13.6379 14.9744 13.4617 14.8434 12.9934C14.7649 12.7129 14.7227 12.4159 14.7227 12.1084C14.7227 10.3917 16.0361 9 17.6563 9C18.889 9 19.9442 9.8056 20.3783 10.947C20.5417 11.3766 20.264 11.8199 19.8347 11.9839L15.9592 13.4644Z" fill="white"/>
<path d="M1.5 7C1.5 3.6863 4.18629 1 7.5 1H18.5C21.8137 1 24.5 3.68493 24.5 6.99864C24.5 10.1522 24.5 13.83 24.5 16.1304C24.5 16.6522 24.5 20.2217 20.8409 20.7434V20.7434C19.3295 20.9589 19.8207 22.1148 19.8251 23.6415C19.827 24.2911 19.7987 24.8325 19.7083 24.9741C19.5578 25.2099 18.0097 23.7896 16.7132 22.5318C15.5497 21.4031 14.002 20.7451 12.381 20.7481L7.51123 20.7573C4.19314 20.7635 1.5 18.0754 1.5 14.7573V7Z" stroke="white" stroke-width="1.5"/>
</svg>
