<svg width="11" height="6" viewBox="0 0 11 6" fill="none" xmlns="http://www.w3.org/2000/svg">
<path fill-rule="evenodd" clip-rule="evenodd" d="M0.949611 0.580958C0.708203 0.822366 0.708203 1.21377 0.949611 1.45517L5.15759 5.66315C5.16171 5.66752 5.16591 5.67184 5.17018 5.67611C5.29093 5.79686 5.44921 5.85721 5.60747 5.85717C5.76574 5.85721 5.92401 5.79686 6.04476 5.67611C6.04904 5.67184 6.05324 5.66752 6.05736 5.66315L10.2653 1.45517C10.5067 1.21377 10.5067 0.822366 10.2653 0.580958C10.0239 0.33955 9.63253 0.33955 9.39112 0.580958L5.60747 4.36461L1.82383 0.580958C1.58242 0.33955 1.19102 0.33955 0.949611 0.580958Z" fill="#615E83"/>
</svg>
