<svg width="17" height="16" viewBox="0 0 17 16" fill="none" xmlns="http://www.w3.org/2000/svg">
<g id="hospital">
<g id="vuesax/bold/hospital">
<g id="hospital_2">
<path id="Vector" d="M15.0882 14.1665H1.75488C1.48155 14.1665 1.25488 14.3932 1.25488 14.6665C1.25488 14.9398 1.48155 15.1665 1.75488 15.1665H15.0882C15.3615 15.1665 15.5882 14.9398 15.5882 14.6665C15.5882 14.3932 15.3615 14.1665 15.0882 14.1665Z" fill="white"/>
<path id="Vector_2" d="M11.7552 1.3335H5.08854C3.08854 1.3335 2.42188 2.52683 2.42188 4.00016V14.6668H6.42188V10.6268C6.42188 10.2802 6.70187 10.0002 7.04854 10.0002H9.80188C10.1419 10.0002 10.4285 10.2802 10.4285 10.6268V14.6668H14.4285V4.00016C14.4219 2.52683 13.7552 1.3335 11.7552 1.3335ZM10.0885 6.16683H8.92188V7.3335C8.92188 7.60683 8.69521 7.8335 8.42188 7.8335C8.14854 7.8335 7.92188 7.60683 7.92188 7.3335V6.16683H6.75521C6.48188 6.16683 6.25521 5.94016 6.25521 5.66683C6.25521 5.3935 6.48188 5.16683 6.75521 5.16683H7.92188V4.00016C7.92188 3.72683 8.14854 3.50016 8.42188 3.50016C8.69521 3.50016 8.92188 3.72683 8.92188 4.00016V5.16683H10.0885C10.3619 5.16683 10.5885 5.3935 10.5885 5.66683C10.5885 5.94016 10.3619 6.16683 10.0885 6.16683Z" fill="white"/>
</g>
</g>
</g>
</svg>
