<svg width="296" height="255" viewBox="0 0 296 255" fill="none" xmlns="http://www.w3.org/2000/svg">
<path d="M58.1666 242.954C58.1666 243.951 58.1144 244.188 57.9129 244.679C57.6069 245.272 56.9204 245.699 56.2413 245.699C55.5323 245.699 54.8458 245.272 54.5398 244.679C54.3084 244.196 54.286 243.982 54.286 242.954V231.172H52.3607C51.5249 231.172 51.3234 231.148 50.9129 230.926C50.4055 230.657 50.0472 229.985 50.0472 229.312C50.0472 228.663 50.4055 227.991 50.9129 227.722C51.3159 227.508 51.495 227.477 52.3607 227.477H60.0248C60.8606 227.477 61.0621 227.5 61.4726 227.722C61.98 227.991 62.3383 228.663 62.3383 229.312C62.3383 229.985 61.98 230.657 61.4726 230.926C61.0696 231.14 60.8905 231.172 60.0248 231.172H58.1741V242.954H58.1666Z" fill="white"/>
<path d="M72.5925 233.681C73.682 234.947 74.2641 236.696 74.2641 238.634C74.2641 242.67 71.5999 245.708 68.0477 245.708C66.3238 245.708 64.6224 244.901 63.4806 243.556C62.3612 242.266 61.8089 240.573 61.8089 238.524C61.8089 234.599 64.5253 231.529 68.0477 231.529C69.7492 231.529 71.4507 232.336 72.5925 233.681ZM65.488 238.571C65.488 240.565 66.5552 242.013 67.9731 242.013C69.4432 242.013 70.585 240.51 70.585 238.595C70.585 236.712 69.4432 235.208 67.9731 235.208C66.5776 235.208 65.488 236.688 65.488 238.571Z" fill="white"/>
<path d="M84.4614 228.322C84.4614 227.38 84.4838 227.135 84.7152 226.684C84.9913 226.091 85.6554 225.687 86.342 225.687C86.9987 225.687 87.6629 226.091 87.939 226.684C88.1704 227.143 88.1928 227.357 88.1928 228.322V243.356C88.1928 244.78 87.5062 245.619 86.3122 245.619C85.4017 245.619 84.8942 245.192 84.5136 244.06C83.7301 245.215 82.7375 245.698 81.2898 245.698C79.5883 245.698 78.0957 244.812 77.0286 243.221C76.1405 241.852 75.6331 240.151 75.6331 238.513C75.6331 236.417 76.5435 234.241 77.9166 232.975C78.8793 232.088 80.2749 231.519 81.4465 231.519C82.5659 231.519 83.4539 231.867 84.4689 232.753V228.322H84.4614ZM79.357 238.379C79.357 240.373 80.4465 241.821 81.9465 241.821C83.3943 241.821 84.4838 240.341 84.4838 238.403C84.4838 236.496 83.3943 235.016 81.9465 235.016C80.4764 235.024 79.357 236.472 79.357 238.379Z" fill="white"/>
<path d="M100.991 233.681C102.08 234.947 102.662 236.696 102.662 238.634C102.662 242.67 99.9982 245.708 96.446 245.708C94.7221 245.708 93.0207 244.901 91.8789 243.556C90.7595 242.266 90.2072 240.573 90.2072 238.524C90.2072 234.599 92.9236 231.529 96.446 231.529C98.155 231.529 99.849 232.336 100.991 233.681ZM93.8938 238.571C93.8938 240.565 94.9609 242.013 96.3789 242.013C97.849 242.013 98.9908 240.51 98.9908 238.595C98.9908 236.712 97.849 235.208 96.3789 235.208C94.9833 235.208 93.8938 236.688 93.8938 238.571Z" fill="white"/>
<path d="M115.306 232.683C116.425 231.821 117.209 231.528 118.328 231.528C121.522 231.528 124.112 234.645 124.112 238.578C124.112 242.613 121.627 245.707 118.35 245.707C116.955 245.707 116.044 245.248 115.253 244.149C114.85 245.169 114.313 245.628 113.5 245.628C112.358 245.628 111.574 244.766 111.574 243.531V228.331C111.574 227.39 111.597 227.144 111.828 226.693C112.104 226.1 112.768 225.696 113.455 225.696C114.112 225.696 114.776 226.1 115.052 226.693C115.283 227.152 115.306 227.366 115.306 228.331V232.683ZM115.283 238.57C115.283 240.564 116.373 242.012 117.873 242.012C119.321 242.012 120.41 240.532 120.41 238.594C120.41 236.687 119.321 235.207 117.873 235.207C116.395 235.207 115.283 236.663 115.283 238.57Z" fill="white"/>
<path d="M138.162 243.278C138.162 244.679 137.401 245.62 136.281 245.62C135.393 245.62 134.781 245.106 134.401 244.062C133.46 245.296 132.699 245.699 131.333 245.699C129.96 245.699 128.721 245.185 127.654 244.196C126.184 242.827 125.445 240.944 125.445 238.546C125.445 236.37 126.057 234.725 127.401 233.324C128.52 232.137 129.833 231.52 131.281 231.52C132.602 231.52 133.386 231.924 134.453 233.079C134.856 232.026 135.415 231.599 136.304 231.599C137.341 231.599 138.154 232.485 138.154 233.617V243.278H138.162ZM129.184 238.57C129.184 240.643 130.199 242.012 131.774 242.012C133.296 242.012 134.333 240.612 134.333 238.594C134.333 236.576 133.296 235.207 131.744 235.207C130.221 235.207 129.184 236.584 129.184 238.57Z" fill="white"/>
<path d="M145.105 227.998C145.105 229.288 144.143 230.309 142.949 230.309C141.732 230.309 140.77 229.288 140.77 227.998C140.77 226.732 141.762 225.711 142.978 225.711C144.143 225.711 145.105 226.764 145.105 227.998ZM141.173 234.241C141.173 233.3 141.195 233.054 141.426 232.603C141.702 232.01 142.367 231.606 143.053 231.606C143.71 231.606 144.374 232.01 144.65 232.603C144.881 233.062 144.904 233.276 144.904 234.241V248.365C144.904 249.331 144.881 249.576 144.65 250.003C144.374 250.597 143.71 251 143.053 251C142.367 251 141.71 250.597 141.426 250.003C141.195 249.544 141.173 249.331 141.173 248.365V234.241Z" fill="white"/>
<path d="M157.928 233.681C159.018 234.947 159.6 236.696 159.6 238.634C159.6 242.67 156.936 245.708 153.383 245.708C151.659 245.708 149.958 244.901 148.816 243.556C147.697 242.266 147.145 240.573 147.145 238.524C147.145 234.599 149.861 231.529 153.383 231.529C155.085 231.529 156.786 232.336 157.928 233.681ZM150.824 238.571C150.824 240.565 151.891 242.013 153.309 242.013C154.779 242.013 155.921 240.51 155.921 238.595C155.921 236.712 154.779 235.208 153.309 235.208C151.913 235.208 150.824 236.688 150.824 238.571Z" fill="white"/>
<path d="M177.418 232.334C178.052 232.713 178.455 233.41 178.455 234.138C178.455 235.103 177.798 235.91 176.985 235.91C176.656 235.91 176.552 235.886 175.641 235.507C175.112 235.293 174.701 235.206 174.298 235.206C172.701 235.206 171.559 236.63 171.559 238.624C171.559 240.666 172.701 242.011 174.403 242.011C174.858 242.011 175.365 241.876 175.873 241.631C176.507 241.307 176.612 241.283 176.94 241.283C177.806 241.283 178.485 242.066 178.485 243.087C178.485 243.625 178.209 244.187 177.776 244.535C176.888 245.231 175.44 245.69 174.044 245.69C172.216 245.69 170.694 244.994 169.53 243.649C168.335 242.28 167.828 240.768 167.828 238.561C167.828 236.409 168.515 234.525 169.753 233.339C170.947 232.183 172.619 231.511 174.194 231.511C175.335 231.527 176.559 231.819 177.418 232.334Z" fill="white"/>
<path d="M190.373 233.681C191.463 234.947 192.045 236.696 192.045 238.634C192.045 242.67 189.381 245.708 185.828 245.708C184.105 245.708 182.403 244.901 181.261 243.556C180.142 242.266 179.59 240.573 179.59 238.524C179.59 234.599 182.306 231.529 185.828 231.529C187.53 231.529 189.231 232.336 190.373 233.681ZM183.269 238.571C183.269 240.565 184.336 242.013 185.754 242.013C187.224 242.013 188.366 240.51 188.366 238.595C188.366 236.712 187.224 235.208 185.754 235.208C184.358 235.208 183.269 236.688 183.269 238.571Z" fill="white"/>
<path d="M194.105 233.918C194.105 232.517 194.866 231.607 196.008 231.607C196.844 231.607 197.381 232.011 197.732 232.976C198.821 231.9 199.709 231.52 201.157 231.52C202.448 231.52 203.545 231.924 204.403 232.707C205.396 233.649 205.747 234.614 205.747 236.497V242.977C205.747 243.919 205.724 244.164 205.493 244.615C205.217 245.209 204.553 245.612 203.896 245.612C203.209 245.612 202.553 245.209 202.269 244.615C202.038 244.156 202.015 243.943 202.015 242.977V237.439C202.015 235.904 201.202 234.938 199.933 234.938C198.739 234.938 197.829 235.959 197.829 237.28V242.985C197.829 243.927 197.806 244.172 197.575 244.623C197.299 245.217 196.635 245.62 195.978 245.62C195.291 245.62 194.635 245.217 194.351 244.623C194.12 244.164 194.097 243.951 194.097 242.985V233.918H194.105Z" fill="white"/>
<path d="M213.377 242.985C213.377 243.926 213.354 244.171 213.123 244.623C212.847 245.216 212.182 245.62 211.526 245.62C210.839 245.62 210.182 245.216 209.899 244.623C209.668 244.164 209.645 243.95 209.645 242.985V235.373C208.653 235.396 208.1 235.207 207.765 234.811C207.488 234.431 207.332 234.028 207.332 233.6C207.332 232.682 207.891 231.986 208.78 231.852C209.033 231.796 209.033 231.796 209.645 231.796V229.755C209.645 228.813 209.668 228.568 209.899 228.141C210.175 227.547 210.839 227.144 211.526 227.144C212.182 227.144 212.847 227.547 213.123 228.109C213.354 228.568 213.377 228.781 213.377 229.747V231.788H214.063C214.877 231.788 215.1 231.812 215.481 232.034C215.966 232.303 216.317 232.951 216.317 233.592C216.317 234.233 215.959 234.882 215.481 235.127C215.078 235.341 214.899 235.373 214.063 235.373H213.377V242.985Z" fill="white"/>
<path d="M217.82 233.862C217.82 232.493 218.559 231.599 219.701 231.599C220.536 231.599 221.148 232.058 221.551 233C222.589 231.9 223.253 231.52 224.111 231.52C225.178 231.52 226.014 232.438 226.014 233.561C226.014 234.503 225.633 234.883 224.111 235.366C222.081 236.094 221.499 236.687 221.551 238V242.977C221.551 243.919 221.529 244.164 221.298 244.615C221.022 245.209 220.357 245.612 219.701 245.612C219.014 245.612 218.357 245.209 218.074 244.615C217.842 244.156 217.82 243.943 217.82 242.977V233.862Z" fill="white"/>
<path d="M237.287 233.681C238.377 234.947 238.959 236.696 238.959 238.634C238.959 242.67 236.295 245.708 232.742 245.708C231.018 245.708 229.317 244.901 228.175 243.556C227.056 242.266 226.504 240.573 226.504 238.524C226.504 234.599 229.22 231.529 232.742 231.529C234.444 231.529 236.145 232.336 237.287 233.681ZM230.183 238.571C230.183 240.565 231.25 242.013 232.668 242.013C234.138 242.013 235.28 240.51 235.28 238.595C235.28 236.712 234.138 235.208 232.668 235.208C231.272 235.208 230.183 236.688 230.183 238.571Z" fill="white"/>
<path d="M244.743 242.985C244.743 243.926 244.72 244.172 244.489 244.623C244.213 245.216 243.549 245.62 242.892 245.62C242.205 245.62 241.549 245.216 241.265 244.623C241.034 244.164 241.011 243.95 241.011 242.985V228.323C241.011 227.381 241.034 227.136 241.265 226.708C241.541 226.115 242.205 225.711 242.892 225.711C243.549 225.711 244.213 226.115 244.489 226.677C244.72 227.136 244.743 227.349 244.743 228.315V242.985Z" fill="white"/>
<path d="M109.204 146.285C109.115 146.277 109.033 146.277 108.943 146.277C106.63 146.277 103.764 147.717 103.309 151.777L103.316 189.773C103.316 198.461 110.637 203.153 117.518 203.153C119.436 203.153 121.033 203.185 122.383 203.216H122.488C125.309 203.28 126.988 203.311 128.376 202.995C130.271 202.568 131.921 200.431 132.197 198.097C132.391 196.467 132.264 194.987 131.152 193.682C129.943 192.273 128.421 191.854 126.898 191.854L125.936 191.87C123.622 191.909 118.197 191.862 117.51 191.854C114.645 191.854 114.645 189.274 114.645 188.016V171.811H126.652C129.846 171.811 132.264 169.327 132.264 165.774C132.264 162.791 129.592 160.433 126.652 160.433H114.645V152.251C114.503 148.295 111.809 146.396 109.204 146.285Z" fill="white"/>
<path d="M268.462 146.356C268.372 146.348 268.29 146.348 268.201 146.348C265.887 146.348 263.029 147.788 262.574 151.839L262.581 189.78C262.581 198.461 269.887 203.145 276.768 203.145C278.686 203.145 280.275 203.176 281.626 203.208H281.73C284.544 203.271 286.23 203.303 287.611 202.987C289.506 202.559 291.148 200.431 291.424 198.097C291.618 196.467 291.492 194.987 290.38 193.689C289.178 192.281 287.648 191.869 286.126 191.869L285.163 191.885C282.85 191.925 277.432 191.877 276.753 191.869C273.887 191.869 273.887 189.29 273.887 188.032V171.843H285.872C289.066 171.843 291.469 169.366 291.469 165.821C291.469 162.838 288.798 160.488 285.872 160.488H273.887V152.322C273.753 148.366 271.066 146.475 268.462 146.356Z" fill="#1ACAD4"/>
<path d="M157 203.254C168.328 203.254 175.649 195.342 175.649 186.329C175.649 177.696 171.164 173.178 162.402 169.831L162.395 169.823L156.32 167.315C151.992 165.487 151.992 163.525 151.992 162.473C152.029 160.265 153.425 158.421 155.798 158.144C161.753 157.44 164.097 166.065 170.395 162.963C173.91 161.104 173.992 156.728 172.679 154.394C170.626 150.738 165.455 146.497 157.194 146.497C147.082 146.497 139.746 153.547 139.746 163.256C139.828 173.519 149.694 177.966 152.716 179.081L158.835 181.605C161.992 182.824 163.597 184.604 163.597 186.891C163.597 189.676 161.746 192.73 156.917 192.548C153.306 192.414 150.149 189.534 148.306 187.5C145.47 184.367 141.432 184.636 139.671 187.144C138.977 188.133 137.716 191.536 138.903 193.775C142.373 200.303 150.089 203.254 157 203.254Z" fill="#1ACAD4"/>
<path d="M97.8392 181.061C97.8392 171.265 89.0332 162.672 79.0034 162.672C69.0706 162.672 59.6676 172.412 59.6527 182.722V182.841C59.6527 194.433 68.1526 203.018 79.869 203.248C80.1452 203.256 80.4138 203.256 80.6825 203.256C86.7944 203.256 91.6601 201.863 94.1227 199.402C95.2421 198.279 95.7944 197.005 95.772 195.612C95.7571 194.496 95.3093 192.851 94.1004 191.869C93.1078 191.062 91.7795 190.809 90.1601 191.134L88.7795 191.41C84.9213 192.186 82.2049 192.479 79.675 192.36C75.1825 192.154 71.9959 189.337 71.0332 187.059L92.1601 187.161C96.0854 187.153 97.8392 184.329 97.8392 181.061ZM87.2347 178.101H71.3392C71.3392 178.086 71.3392 178.07 71.3392 178.054C71.4213 176.646 74.0706 171.993 79.3168 171.993C84.9064 171.993 87.0854 176.44 87.2347 178.101Z" fill="white"/>
<path d="M254.453 161.017C257.259 159.759 258.394 156.729 257.23 153.722C255.655 150.818 253.14 148.594 249.931 147.281C245.588 145.509 239.7 146.07 235.998 148.903C232.827 151.34 231.289 155.099 231.289 160.4C231.289 161.12 231.416 167.49 231.416 167.49H228.685C226.192 167.49 223.886 168.558 223.886 171.794V173.844C223.886 177.143 226.752 178.077 228.685 178.077H231.431V198.491C231.431 202.305 234.088 203.239 237.028 203.239C240.125 203.239 242.64 202.479 242.64 198.08V178.077H248.028C251.162 178.077 252.886 176.217 252.886 173.844V171.794C252.886 169.42 251.036 167.49 248.028 167.49H242.439V160.455C242.439 158.628 243.11 157.544 244.118 157.172C245.118 156.808 246.61 156.539 248.707 158.675C250.386 160.384 251.931 162.149 254.453 161.017Z" fill="#1ACAD4"/>
<path d="M200.856 162.561C189.842 162.561 181.215 171.494 181.215 182.904C181.215 194.314 189.842 203.247 200.856 203.247C211.871 203.247 220.498 194.314 220.498 182.904C220.491 171.502 211.864 162.561 200.856 162.561ZM200.856 192.716C196.08 192.716 192.342 188.443 192.342 182.983C192.342 177.397 196.006 173.179 200.856 173.179C205.633 173.179 209.371 177.484 209.371 182.983C209.371 188.443 205.625 192.716 200.856 192.716Z" fill="#1ACAD4"/>
<path d="M4.81427 151.333C4.17994 153.414 4.51576 155.859 5.74711 158.225L26.5978 198.207C28.2471 201.372 31.0754 203.255 34.1575 203.255C37.2396 203.255 40.0679 201.364 41.7172 198.207L62.5753 158.225C63.9261 155.503 64.0306 152.567 62.8664 150.162C61.8739 148.105 60.053 146.72 58.0157 146.459C53.8067 145.921 51.8739 149.624 50.3216 152.607L34.1575 183.593L18.0978 152.472C17.0307 150.083 14.3889 146.364 10.9859 146.364C10.2546 146.364 9.4859 146.538 8.69486 146.926C6.73964 147.899 5.39636 149.418 4.81427 151.333Z" fill="white"/>
<path d="M92.7578 5.96208C87.325 9.49901 86.7653 17.0951 88.6832 20.4342C91.4145 25.2055 95.3548 31.7572 95.3548 31.7572L104.609 47.709L118.071 25.799L111.832 15.1249L108.31 9.04008C108.31 9.04008 105.653 4.9176 101.086 4.19756C98.2727 3.74654 95.0937 4.44286 92.7578 5.96208Z" fill="white"/>
<path d="M198.325 93.6275C199.25 90.8106 199.668 86.8385 196.548 82.2017L180.631 55.0298L167.168 77.011L176.257 92.5989C176.257 92.5989 178.302 96.1437 179.369 97.4176C180.854 99.198 184.213 101.92 189.295 101.2C194.81 100.417 197.608 95.8035 198.325 93.6275Z" fill="#1ACAD4"/>
<path d="M150.327 48.1822L163.588 25.9319L156.386 13.6674C153.461 8.74572 148.207 6.80713 142.722 6.80713C137.237 6.80713 131.438 9.64775 128.521 14.5694L87.9535 83.8047C85.8341 87.5553 86.4311 92.4216 88.2446 95.5233C90.2445 98.9495 93.9236 101.252 98.043 101.11C104.297 100.888 106.685 96.7577 109.386 92.1842L118.446 76.6676L142.73 35.1897L150.327 48.1822Z" fill="#1ACAD4"/>
<path d="M196.587 10.7099C194.952 7.03054 191.064 4 186.766 4C179.079 4 176.96 9.43597 174.229 14.0174L142.706 67.8706L134.99 54.6961L121.774 77.0176L129.042 89.4166C131.96 94.3383 136.826 97.3292 142.311 97.3292C147.796 97.3292 153.385 94.4807 156.311 89.5511L195.818 22.0249C198.027 18.1082 198.072 14.049 196.587 10.7099Z" fill="white"/>
</svg>
