<svg width="18" height="18" viewBox="0 0 18 18" fill="none" xmlns="http://www.w3.org/2000/svg">
<path fill-rule="evenodd" clip-rule="evenodd" d="M5.25 6.75C5.25 6.33579 5.58579 6 6 6H12C12.4142 6 12.75 6.33579 12.75 6.75C12.75 7.16421 12.4142 7.5 12 7.5H6C5.58579 7.5 5.25 7.16421 5.25 6.75Z" fill="#6F767E"/>
<path fill-rule="evenodd" clip-rule="evenodd" d="M5.25 9.75C5.25 9.33579 5.58579 9 6 9H9C9.41421 9 9.75 9.33579 9.75 9.75C9.75 10.1642 9.41421 10.5 9 10.5H6C5.58579 10.5 5.25 10.1642 5.25 9.75Z" fill="#6F767E"/>
<path fill-rule="evenodd" clip-rule="evenodd" d="M5.03972 13.0977C5.3093 12.873 5.6491 12.75 6 12.75H14.25C14.6642 12.75 15 12.4142 15 12V4.5C15 4.08579 14.6642 3.75 14.25 3.75H3.75C3.33579 3.75 3 4.08579 3 4.5V14.7974L5.03972 13.0977ZM6 14.25H14.25C15.4926 14.25 16.5 13.2426 16.5 12V4.5C16.5 3.25736 15.4926 2.25 14.25 2.25H3.75C2.50736 2.25 1.5 3.25736 1.5 4.5V14.7974C1.5 16.0692 2.98328 16.7639 3.96027 15.9498L6 14.25Z" fill="#6F767E"/>
</svg>
