<svg width="18" height="18" viewBox="0 0 18 18" fill="none" xmlns="http://www.w3.org/2000/svg">
<path fill-rule="evenodd" clip-rule="evenodd" d="M1.5 12.4469C1.5 12.1613 1.61603 11.8879 1.82148 11.6895L2.59319 10.9441C2.88696 10.6604 3.05233 10.2691 3.0511 9.86071L3.04401 7.49595C3.03407 4.18739 5.71342 1.5 9.02199 1.5C12.3235 1.5 15 4.17644 15 7.478L15 9.87868C15 10.2765 15.158 10.658 15.4393 10.9393L16.1893 11.6893C16.3883 11.8883 16.5 12.158 16.5 12.4393C16.5 13.0251 16.0251 13.5 15.4393 13.5H12C12 15.1569 10.6569 16.5 9 16.5C7.34315 16.5 6 15.1569 6 13.5H2.55306C1.97147 13.5 1.5 13.0285 1.5 12.4469ZM7.5 13.5C7.5 14.3284 8.17157 15 9 15C9.82843 15 10.5 14.3284 10.5 13.5H7.5ZM13.5 9.87868C13.5 10.6743 13.8161 11.4374 14.3787 12L3.65888 12C4.23167 11.4345 4.55352 10.662 4.5511 9.85621L4.544 7.49145C4.53656 5.01307 6.5436 3 9.02199 3C11.4951 3 13.5 5.00487 13.5 7.478L13.5 9.87868Z" fill="#6F767E"/>
</svg>
