<svg width="78" height="24" viewBox="0 0 78 24" fill="none" xmlns="http://www.w3.org/2000/svg">
<path d="M29.5385 4.00466C29.5167 4.00244 29.4966 4.00244 29.4748 4.00244C28.9106 4.00244 28.2116 4.40675 28.1006 5.54637L28.1024 16.2139C28.1024 18.6531 29.888 19.9704 31.5661 19.9704C32.0339 19.9704 32.4234 19.9793 32.7529 19.9882H32.7784C33.4664 20.006 33.8759 20.0149 34.2145 19.926C34.6768 19.806 35.079 19.2062 35.1464 18.5509C35.1937 18.0933 35.1627 17.6779 34.8915 17.3113C34.5967 16.9159 34.2254 16.7982 33.8541 16.7982L33.6193 16.8026C33.055 16.8137 31.7318 16.8004 31.5643 16.7982C30.8654 16.7982 30.8654 16.074 30.8654 15.7207V11.1712H33.794C34.573 11.1712 35.1628 10.4736 35.1628 9.47616C35.1628 8.63866 34.5111 7.97666 33.794 7.97666H30.8654V5.67966C30.8308 4.56892 30.1737 4.03576 29.5385 4.00466Z" fill="#635CFF"/>
<path d="M68.3814 4.02566C68.3596 4.02344 68.3395 4.02344 68.3177 4.02344C67.7535 4.02344 67.0563 4.42775 66.9453 5.56514L66.9471 16.2171C66.9471 18.6541 68.729 19.9692 70.4072 19.9692C70.875 19.9692 71.2627 19.9781 71.5921 19.987H71.6176C72.3038 20.0048 72.7152 20.0136 73.0519 19.9248C73.5142 19.8048 73.9146 19.2072 73.982 18.5519C74.0293 18.0943 73.9984 17.6789 73.7272 17.3145C73.4341 16.9191 73.061 16.8036 72.6897 16.8036L72.4549 16.808C71.8906 16.8192 70.5692 16.8058 70.4036 16.8036C69.7047 16.8036 69.7046 16.0794 69.7046 15.7262V11.181H72.6278C73.4068 11.181 73.9929 10.4857 73.9929 9.49049C73.9929 8.653 73.3413 7.99322 72.6278 7.99322H69.7046V5.70065C69.6719 4.58991 69.0166 4.05898 68.3814 4.02566Z" fill="#1ACAD4"/>
<path d="M41.1971 19.9991C43.96 19.9991 45.7456 17.7776 45.7456 15.2474C45.7456 12.8237 44.6517 11.5553 42.5148 10.6156L42.513 10.6134L41.0314 9.90916C39.9757 9.396 39.9757 8.84508 39.9757 8.54962C39.9848 7.92983 40.3252 7.41222 40.904 7.33447C42.3565 7.13676 42.928 9.55817 44.4642 8.68735C45.3215 8.1653 45.3415 6.93682 45.0212 6.28148C44.5206 5.25516 43.2593 4.06445 41.2444 4.06445C38.7781 4.06445 36.9889 6.04379 36.9889 8.76954C37.0089 11.6508 39.4151 12.8993 40.1523 13.2125L41.6448 13.9212C42.4147 14.2633 42.8061 14.7631 42.8061 15.4051C42.8061 16.1871 42.3547 17.0446 41.177 16.9935C40.2961 16.9557 39.5262 16.1471 39.0766 15.5762C38.3849 14.6965 37.4002 14.772 36.9707 15.4762C36.8014 15.7539 36.4938 16.7091 36.7832 17.3378C37.6296 19.1705 39.5116 19.9991 41.1971 19.9991Z" fill="#1ACAD4"/>
<path d="M26.7688 13.7682C26.7688 11.018 24.621 8.60547 22.1747 8.60547C19.7521 8.60547 17.4587 11.3401 17.4551 14.2347V14.268C17.4551 17.5225 19.5282 19.9328 22.3859 19.9972C22.4532 19.9994 22.5187 19.9994 22.5842 19.9994C24.0749 19.9994 25.2617 19.6085 25.8623 18.9176C26.1353 18.6021 26.27 18.2445 26.2646 17.8535C26.2609 17.5403 26.1517 17.0782 25.8569 16.8027C25.6148 16.5761 25.2908 16.505 24.8958 16.5961L24.5591 16.6739C23.6181 16.8916 22.9556 16.9738 22.3385 16.9405C21.2428 16.8827 20.4656 16.0918 20.2308 15.4521L25.3836 15.4809C26.341 15.4787 26.7688 14.6857 26.7688 13.7682ZM24.1823 12.9374H20.3054C20.3054 12.9329 20.3054 12.9285 20.3054 12.924C20.3254 12.5286 20.9716 11.2224 22.2512 11.2224C23.6144 11.2224 24.1459 12.4708 24.1823 12.9374Z" fill="#635CFF"/>
<path d="M64.9602 8.14086C65.6446 7.78764 65.9212 6.93681 65.6373 6.09265C65.2533 5.27737 64.6399 4.65313 63.8572 4.28436C62.7979 3.78675 61.3618 3.94448 60.459 4.73977C59.6854 5.42399 59.3105 6.47919 59.3105 7.96758C59.3105 8.16973 59.3414 9.95802 59.3414 9.95802H58.6752C58.0673 9.95802 57.5049 10.2579 57.5049 11.1665V11.7419C57.5049 12.6682 58.2038 12.9304 58.6752 12.9304H59.3451V18.6618C59.3451 19.7325 59.993 19.9947 60.7102 19.9947C61.4655 19.9947 62.0789 19.7814 62.0789 18.5463V12.9304H63.3931C64.1575 12.9304 64.578 12.4083 64.578 11.7419V11.1665C64.578 10.5001 64.1266 9.95802 63.3931 9.95802H62.0298V7.98313C62.0298 7.46996 62.1936 7.16562 62.4393 7.06121C62.6832 6.95902 63.0472 6.88349 63.5587 7.48329C63.9682 7.96313 64.345 8.45853 64.9602 8.14086Z" fill="#1ACAD4"/>
<path d="M51.8912 8.57422C49.2047 8.57422 47.1006 11.0823 47.1006 14.2856C47.1006 17.489 49.2047 19.9971 51.8912 19.9971C54.5777 19.9971 56.6818 17.489 56.6818 14.2856C56.68 11.0845 54.5759 8.57422 51.8912 8.57422ZM51.8912 17.0403C50.7263 17.0403 49.8144 15.8407 49.8144 14.3079C49.8144 12.7395 50.7081 11.5554 51.8912 11.5554C53.0561 11.5554 53.968 12.7639 53.968 14.3079C53.968 15.8407 53.0543 17.0403 51.8912 17.0403Z" fill="#1ACAD4"/>
<path d="M4.07652 5.42243C3.9218 6.00668 4.00371 6.69312 4.30404 7.35735L9.38952 18.5825C9.79177 19.4711 10.4816 19.9998 11.2333 19.9998C11.985 19.9998 12.6749 19.4689 13.0771 18.5825L18.1644 7.35735C18.4939 6.59316 18.5194 5.76899 18.2354 5.09366C17.9933 4.51607 17.5492 4.12731 17.0523 4.054C16.0258 3.90294 15.5544 4.9426 15.1758 5.78009L11.2333 14.4794L7.31638 5.74233C7.0561 5.07144 6.41176 4.02734 5.58178 4.02734C5.4034 4.02734 5.21593 4.07622 5.02299 4.18507C4.54611 4.45832 4.21849 4.88483 4.07652 5.42243Z" fill="#635CFF"/>
</svg>
