<svg width="140" height="40" viewBox="0 0 140 40" fill="none" xmlns="http://www.w3.org/2000/svg">
<path d="M6.08418 4.64528C4.24719 5.80829 4.05794 8.30601 4.70643 9.40397C5.62998 10.9729 6.9623 13.1271 6.9623 13.1271L10.0912 18.3724L14.6433 11.168L12.5338 7.65817L11.3428 5.65738C11.3428 5.65738 10.4445 4.30184 8.90022 4.06508C7.94892 3.91677 6.87399 4.14574 6.08418 4.64528Z" fill="#635CFF"/>
<path d="M41.7722 33.4709C42.0851 32.5446 42.2265 31.2385 41.1717 29.7139L35.7894 20.7793L31.2373 28.0071L34.3107 33.1326C34.3107 33.1326 35.0021 34.2983 35.363 34.7171C35.8651 35.3025 37.0006 36.1976 38.719 35.9608C40.5838 35.7032 41.53 34.1864 41.7722 33.4709Z" fill="#1ACAD4"/>
<path d="M25.5458 18.5286L30.0298 11.2124L27.5948 7.17959C26.6056 5.56127 24.8292 4.92383 22.9745 4.92383C21.1199 4.92383 19.1592 5.85787 18.1726 7.47619L4.45574 30.2419C3.73911 31.4752 3.94097 33.0753 4.55415 34.0952C5.2304 35.2218 6.47441 35.9789 7.86729 35.9321C9.98185 35.8592 10.7893 34.5011 11.7028 32.9972L14.7661 27.8951L22.977 14.2565L25.5458 18.5286Z" fill="#1ACAD4"/>
<path d="M41.19 6.20633C40.6374 4.99649 39.3228 4 37.8693 4C35.2703 4 34.5536 5.78744 33.6301 7.29388L22.9715 25.0017L20.3624 20.6697L15.8936 28.0094L18.3513 32.0864C19.3379 33.7048 20.9831 34.6882 22.8378 34.6882C24.6924 34.6882 26.5824 33.7516 27.5716 32.1307L40.9301 9.9269C41.677 8.63901 41.6922 7.30429 41.19 6.20633Z" fill="#635CFF"/>
<path d="M91.5385 12.0047C91.5167 12.0024 91.4966 12.0024 91.4748 12.0024C90.9106 12.0024 90.2116 12.4067 90.1006 13.5464L90.1024 24.2139C90.1024 26.6531 91.888 27.9704 93.5661 27.9704C94.0339 27.9704 94.4234 27.9793 94.7529 27.9882H94.7784C95.4664 28.006 95.8759 28.0149 96.2145 27.926C96.6768 27.806 97.079 27.2062 97.1464 26.5509C97.1937 26.0933 97.1627 25.6779 96.8915 25.3113C96.5967 24.9159 96.2254 24.7982 95.8541 24.7982L95.6193 24.8026C95.055 24.8137 93.7318 24.8004 93.5643 24.7982C92.8654 24.7982 92.8654 24.074 92.8654 23.7207V19.1712H95.794C96.573 19.1712 97.1628 18.4736 97.1628 17.4762C97.1628 16.6387 96.5111 15.9767 95.794 15.9767H92.8654V13.6797C92.8308 12.5689 92.1737 12.0358 91.5385 12.0047Z" fill="#635CFF"/>
<path d="M130.381 12.0257C130.36 12.0234 130.34 12.0234 130.318 12.0234C129.753 12.0234 129.056 12.4277 128.945 13.5651L128.947 24.2171C128.947 26.6541 130.729 27.9692 132.407 27.9692C132.875 27.9692 133.263 27.9781 133.592 27.987H133.618C134.304 28.0048 134.715 28.0136 135.052 27.9248C135.514 27.8048 135.915 27.2072 135.982 26.5519C136.029 26.0943 135.998 25.6789 135.727 25.3145C135.434 24.9191 135.061 24.8036 134.69 24.8036L134.455 24.808C133.891 24.8192 132.569 24.8058 132.404 24.8036C131.705 24.8036 131.705 24.0794 131.705 23.7262V19.181H134.628C135.407 19.181 135.993 18.4857 135.993 17.4905C135.993 16.653 135.341 15.9932 134.628 15.9932H131.705V13.7007C131.672 12.5899 131.017 12.059 130.381 12.0257Z" fill="#1ACAD4"/>
<path d="M103.197 27.9991C105.96 27.9991 107.746 25.7776 107.746 23.2474C107.746 20.8237 106.652 19.5553 104.515 18.6156L104.513 18.6134L103.031 17.9092C101.976 17.396 101.976 16.8451 101.976 16.5496C101.985 15.9298 102.325 15.4122 102.904 15.3345C104.356 15.1368 104.928 17.5582 106.464 16.6874C107.322 16.1653 107.342 14.9368 107.021 14.2815C106.521 13.2552 105.259 12.0645 103.244 12.0645C100.778 12.0645 98.9889 14.0438 98.9889 16.7695C99.0089 19.6508 101.415 20.8993 102.152 21.2125L103.645 21.9212C104.415 22.2633 104.806 22.7631 104.806 23.4051C104.806 24.1871 104.355 25.0446 103.177 24.9935C102.296 24.9557 101.526 24.1471 101.077 23.5762C100.385 22.6965 99.4002 22.772 98.9707 23.4762C98.8014 23.7539 98.4938 24.7091 98.7832 25.3378C99.6296 27.1705 101.512 27.9991 103.197 27.9991Z" fill="#1ACAD4"/>
<path d="M88.7688 21.7682C88.7688 19.018 86.621 16.6055 84.1747 16.6055C81.7521 16.6055 79.4587 19.3401 79.4551 22.2347V22.268C79.4551 25.5225 81.5282 27.9328 84.3858 27.9972C84.4532 27.9994 84.5187 27.9994 84.5842 27.9994C86.0749 27.9994 87.2617 27.6084 87.8623 26.9176C88.1354 26.6021 88.27 26.2445 88.2646 25.8535C88.2609 25.5403 88.1517 25.0782 87.8569 24.8027C87.6148 24.5761 87.2908 24.505 86.8958 24.5961L86.5591 24.6739C85.6181 24.8916 84.9556 24.9738 84.3385 24.9405C83.2428 24.8827 82.4656 24.0918 82.2308 23.4521L87.3836 23.4809C88.341 23.4787 88.7688 22.6857 88.7688 21.7682ZM86.1823 20.9374H82.3054C82.3054 20.9329 82.3054 20.9285 82.3054 20.924C82.3254 20.5286 82.9716 19.2224 84.2512 19.2224C85.6144 19.2224 86.1459 20.4708 86.1823 20.9374Z" fill="#635CFF"/>
<path d="M126.96 16.1409C127.645 15.7876 127.921 14.9368 127.637 14.0927C127.253 13.2774 126.64 12.6531 125.857 12.2844C124.798 11.7868 123.362 11.9445 122.459 12.7398C121.685 13.424 121.31 14.4792 121.31 15.9676C121.31 16.1697 121.341 17.958 121.341 17.958H120.675C120.067 17.958 119.505 18.2579 119.505 19.1665V19.7419C119.505 20.6682 120.204 20.9304 120.675 20.9304H121.345V26.6618C121.345 27.7325 121.993 27.9947 122.71 27.9947C123.466 27.9947 124.079 27.7814 124.079 26.5463V20.9304H125.393C126.158 20.9304 126.578 20.4083 126.578 19.7419V19.1665C126.578 18.5001 126.127 17.958 125.393 17.958H124.03V15.9831C124.03 15.47 124.194 15.1656 124.439 15.0612C124.683 14.959 125.047 14.8835 125.559 15.4833C125.968 15.9631 126.345 16.4585 126.96 16.1409Z" fill="#1ACAD4"/>
<path d="M113.891 16.5742C111.205 16.5742 109.101 19.0823 109.101 22.2856C109.101 25.489 111.205 27.9971 113.891 27.9971C116.578 27.9971 118.682 25.489 118.682 22.2856C118.68 19.0845 116.576 16.5742 113.891 16.5742ZM113.891 25.0403C112.726 25.0403 111.814 23.8407 111.814 22.3079C111.814 20.7395 112.708 19.5554 113.891 19.5554C115.056 19.5554 115.968 20.7639 115.968 22.3079C115.968 23.8407 115.054 25.0403 113.891 25.0403Z" fill="#1ACAD4"/>
<path d="M66.0765 13.4224C65.9218 14.0067 66.0037 14.6931 66.304 15.3573L71.3895 26.5825C71.7918 27.4711 72.4816 27.9998 73.2333 27.9998C73.985 27.9998 74.6749 27.4689 75.0771 26.5825L80.1644 15.3573C80.4939 14.5932 80.5194 13.769 80.2354 13.0937C79.9934 12.5161 79.5492 12.1273 79.0523 12.054C78.0258 11.9029 77.5544 12.9426 77.1758 13.7801L73.2333 22.4794L69.3164 13.7423C69.0561 13.0714 68.4118 12.0273 67.5818 12.0273C67.4034 12.0273 67.2159 12.0762 67.023 12.1851C66.5461 12.4583 66.2185 12.8848 66.0765 13.4224Z" fill="#635CFF"/>
</svg>
