<svg width="46" height="40" viewBox="0 0 46 40" fill="none" xmlns="http://www.w3.org/2000/svg">
<path d="M6.08418 4.64528C4.24719 5.80829 4.05794 8.30601 4.70643 9.40397C5.62998 10.9729 6.9623 13.1271 6.9623 13.1271L10.0912 18.3724L14.6433 11.168L12.5338 7.65817L11.3428 5.65738C11.3428 5.65738 10.4445 4.30184 8.90022 4.06508C7.94892 3.91677 6.87399 4.14574 6.08418 4.64528Z" fill="#635CFF"/>
<path d="M41.7722 33.4709C42.0851 32.5446 42.2265 31.2385 41.1717 29.7139L35.7894 20.7793L31.2373 28.0071L34.3107 33.1326C34.3107 33.1326 35.0021 34.2982 35.363 34.7171C35.8651 35.3025 37.0006 36.1976 38.719 35.9608C40.5838 35.7032 41.53 34.1864 41.7722 33.4709Z" fill="#1ACAD4"/>
<path d="M25.5458 18.5286L30.0298 11.2124L27.5948 7.17959C26.6056 5.56127 24.8292 4.92383 22.9745 4.92383C21.1199 4.92383 19.1592 5.85787 18.1726 7.47619L4.45574 30.2419C3.73911 31.4752 3.94097 33.0753 4.55415 34.0952C5.2304 35.2218 6.47441 35.9789 7.86729 35.9321C9.98185 35.8592 10.7893 34.5011 11.7028 32.9972L14.7661 27.8951L22.977 14.2565L25.5458 18.5286Z" fill="#1ACAD4"/>
<path d="M41.19 6.20633C40.6374 4.99649 39.3228 4 37.8693 4C35.2703 4 34.5536 5.78744 33.6301 7.29388L22.9715 25.0017L20.3624 20.6697L15.8936 28.0094L18.3513 32.0864C19.3379 33.7047 20.9831 34.6882 22.8378 34.6882C24.6924 34.6882 26.5824 33.7516 27.5716 32.1307L40.9301 9.9269C41.677 8.63901 41.6922 7.30429 41.19 6.20633Z" fill="#635CFF"/>
</svg>
