<svg width="16" height="16" viewBox="0 0 16 16" fill="none" xmlns="http://www.w3.org/2000/svg">
<path d="M13.4001 4.62659C13.4001 4.98659 13.2068 5.31325 12.9001 5.47992L11.7401 6.10659L10.7534 6.63325L8.70676 7.73992C8.48676 7.85992 8.24676 7.91992 8.0001 7.91992C7.75343 7.91992 7.51343 7.85992 7.29343 7.73992L3.1001 5.47992C2.79343 5.31325 2.6001 4.98659 2.6001 4.62659C2.6001 4.26659 2.79343 3.93992 3.1001 3.77325L4.41343 3.06659L5.4601 2.49992L7.29343 1.51325C7.73343 1.27325 8.26676 1.27325 8.70676 1.51325L12.9001 3.77325C13.2068 3.93992 13.4001 4.26659 13.4001 4.62659Z" fill="white"/>
<path d="M6.60014 8.52676L2.70014 6.58009C2.40014 6.42676 2.05348 6.44676 1.76681 6.62009C1.48014 6.79343 1.31348 7.10009 1.31348 7.43343V11.1201C1.31348 11.7601 1.66681 12.3334 2.24014 12.6201L6.14014 14.5668C6.27348 14.6334 6.42014 14.6668 6.56681 14.6668C6.74014 14.6668 6.91348 14.6201 7.06681 14.5201C7.35348 14.3468 7.52014 14.0401 7.52014 13.7068V10.0201C7.52681 9.38676 7.17348 8.81343 6.60014 8.52676Z" fill="white"/>
<path d="M14.6865 7.43325V11.1199C14.6865 11.7533 14.3331 12.3266 13.7598 12.6133L9.85981 14.5666C9.72648 14.6333 9.57981 14.6666 9.43314 14.6666C9.25981 14.6666 9.08648 14.6199 8.92648 14.5199C8.64648 14.3466 8.47314 14.0399 8.47314 13.7066V10.0266C8.47314 9.38659 8.82648 8.81325 9.39981 8.52659L10.8331 7.81325L11.8331 7.31325L13.2998 6.57992C13.5998 6.42659 13.9465 6.43992 14.2331 6.61992C14.5131 6.79325 14.6865 7.09992 14.6865 7.43325Z" fill="white"/>
<path d="M11.7402 6.10667L10.7536 6.63333L4.41357 3.06667L5.46024 2.5L11.5802 5.95333C11.6469 5.99333 11.7002 6.04667 11.7402 6.10667Z" fill="white"/>
<path d="M11.8335 7.31323V8.82657C11.8335 9.0999 11.6068 9.32657 11.3335 9.32657C11.0602 9.32657 10.8335 9.0999 10.8335 8.82657V7.81323L11.8335 7.31323Z" fill="white"/>
</svg>
