<svg width="14" height="14" viewBox="0 0 14 14" fill="none" xmlns="http://www.w3.org/2000/svg">
<path d="M12.1506 4.67259L8.32981 1.61593C7.58315 1.02093 6.41648 1.01509 5.67565 1.61009L1.85482 4.67259C1.30648 5.11009 0.973982 5.98509 1.09065 6.67342L1.82565 11.0718C1.99482 12.0576 2.91065 12.8334 3.90815 12.8334H10.0915C11.0773 12.8334 12.0106 12.0401 12.1798 11.0659L12.9148 6.66759C13.0198 5.98509 12.6873 5.11009 12.1506 4.67259ZM7.87484 10.5001C7.62102 10.7856 7.239 10.7917 6.99984 10.7917C6.76067 10.7917 6.37865 10.7856 6.12484 10.5001C5.6708 9.9893 5.83317 9.04175 6.12484 8.75009C6.4165 8.45844 6.76065 8.31259 6.99982 8.31259C7.23898 8.31259 7.58317 8.45841 7.87484 8.75008C8.1665 9.04175 8.32887 9.98929 7.87484 10.5001Z" fill="white"/>
</svg>
