<svg width="14" height="14" viewBox="0 0 14 14" fill="none" xmlns="http://www.w3.org/2000/svg">
<path d="M12.8332 12.3958H1.1665C0.927337 12.3958 0.729004 12.5941 0.729004 12.8333C0.729004 13.0724 0.927337 13.2708 1.1665 13.2708H12.8332C13.0723 13.2708 13.2707 13.0724 13.2707 12.8333C13.2707 12.5941 13.0723 12.3958 12.8332 12.3958Z" fill="white"/>
<path d="M9.91667 1.16675H4.08333C2.33333 1.16675 1.75 2.21091 1.75 3.50008V12.8334H5.25V9.29841C5.25 8.99508 5.495 8.75008 5.79833 8.75008H8.2075C8.505 8.75008 8.75583 8.99508 8.75583 9.29841V12.8334H12.2558V3.50008C12.25 2.21091 11.6667 1.16675 9.91667 1.16675ZM8.45833 5.39591H7.4375V6.41675C7.4375 6.65591 7.23917 6.85425 7 6.85425C6.76083 6.85425 6.5625 6.65591 6.5625 6.41675V5.39591H5.54167C5.3025 5.39591 5.10417 5.19758 5.10417 4.95841C5.10417 4.71925 5.3025 4.52091 5.54167 4.52091H6.5625V3.50008C6.5625 3.26091 6.76083 3.06258 7 3.06258C7.23917 3.06258 7.4375 3.26091 7.4375 3.50008V4.52091H8.45833C8.6975 4.52091 8.89583 4.71925 8.89583 4.95841C8.89583 5.19758 8.6975 5.39591 8.45833 5.39591Z" fill="white"/>
</svg>
