<svg width="16" height="16" viewBox="0 0 16 16" fill="none" xmlns="http://www.w3.org/2000/svg">
<path d="M10.6668 5.83325C10.3935 5.83325 10.1668 5.60659 10.1668 5.33325V2.99992C10.1668 2.27992 9.72016 1.83325 9.00016 1.83325H7.00016C6.28016 1.83325 5.8335 2.27992 5.8335 2.99992V5.33325C5.8335 5.60659 5.60683 5.83325 5.3335 5.83325C5.06016 5.83325 4.8335 5.60659 4.8335 5.33325V2.99992C4.8335 1.72659 5.72683 0.833252 7.00016 0.833252H9.00016C10.2735 0.833252 11.1668 1.72659 11.1668 2.99992V5.33325C11.1668 5.60659 10.9402 5.83325 10.6668 5.83325Z" fill="white"/>
<path d="M5.33339 11.8533C5.06006 11.8533 4.83339 11.6266 4.83339 11.3533C4.83339 11.0733 5.06006 10.8533 5.33339 10.8533H13.1734C13.3734 10.8533 13.5267 10.6799 13.5067 10.4799L13.0534 6.68659C12.8934 5.39325 12.6667 4.33325 10.4001 4.33325H5.60006C3.33339 4.33325 3.10673 5.39325 2.95339 6.68659L2.35339 11.6866C2.16006 13.3266 2.66673 14.6666 5.00673 14.6666H10.9934C13.1001 14.6666 13.7201 13.5799 13.6867 12.1666C13.6801 11.9866 13.5334 11.8533 13.3534 11.8533H5.33339Z" fill="white"/>
</svg>
