<svg width="24" height="24" viewBox="0 0 24 24" fill="none" xmlns="http://www.w3.org/2000/svg">
<path d="M20.0999 6.94C20.0999 7.48 19.8099 7.97 19.3499 8.22L17.6099 9.16L16.1299 9.95L13.0599 11.61C12.7299 11.79 12.3699 11.88 11.9999 11.88C11.6299 11.88 11.2699 11.79 10.9399 11.61L4.6499 8.22C4.1899 7.97 3.8999 7.48 3.8999 6.94C3.8999 6.4 4.1899 5.91 4.6499 5.66L6.6199 4.6L8.1899 3.75L10.9399 2.27C11.5999 1.91 12.3999 1.91 13.0599 2.27L19.3499 5.66C19.8099 5.91 20.0999 6.4 20.0999 6.94Z" fill="#48566D"/>
<path d="M9.90021 12.7899L4.05022 9.8699C3.60021 9.6399 3.08021 9.6699 2.65021 9.9299C2.22021 10.1899 1.97021 10.6499 1.97021 11.1499V16.6799C1.97021 17.6399 2.50021 18.4999 3.36021 18.9299L9.21021 21.8499C9.41021 21.9499 9.63022 21.9999 9.85021 21.9999C10.1102 21.9999 10.3702 21.9299 10.6002 21.7799C11.0302 21.5199 11.2802 21.0599 11.2802 20.5599V15.0299C11.2902 14.0799 10.7602 13.2199 9.90021 12.7899Z" fill="#48566D"/>
<path d="M22.03 11.1499V16.6799C22.03 17.6299 21.5 18.4899 20.64 18.9199L14.79 21.8499C14.59 21.9499 14.37 21.9999 14.15 21.9999C13.89 21.9999 13.63 21.9299 13.39 21.7799C12.97 21.5199 12.71 21.0599 12.71 20.5599V15.0399C12.71 14.0799 13.24 13.2199 14.1 12.7899L16.25 11.7199L17.75 10.9699L19.95 9.86988C20.4 9.63988 20.92 9.65988 21.35 9.92988C21.77 10.1899 22.03 10.6499 22.03 11.1499Z" fill="#48566D"/>
<path d="M17.6101 9.16L16.1301 9.95L6.62012 4.6L8.19012 3.75L17.3701 8.93C17.4701 8.99 17.5501 9.07 17.6101 9.16Z" fill="#48566D"/>
<path d="M17.75 10.97V13.24C17.75 13.65 17.41 13.99 17 13.99C16.59 13.99 16.25 13.65 16.25 13.24V11.72L17.75 10.97Z" fill="#48566D"/>
</svg>
