<svg width="16" height="16" viewBox="0 0 16 16" fill="none" xmlns="http://www.w3.org/2000/svg">
<path d="M5.33333 3.83325C5.05999 3.83325 4.83333 3.60659 4.83333 3.33325V1.33325C4.83333 1.05992 5.05999 0.833252 5.33333 0.833252C5.60666 0.833252 5.83333 1.05992 5.83333 1.33325V3.33325C5.83333 3.60659 5.60666 3.83325 5.33333 3.83325Z" fill="#8B95A6"/>
<path d="M10.6667 3.83325C10.3933 3.83325 10.1667 3.60659 10.1667 3.33325V1.33325C10.1667 1.05992 10.3933 0.833252 10.6667 0.833252C10.94 0.833252 11.1667 1.05992 11.1667 1.33325V3.33325C11.1667 3.60659 10.94 3.83325 10.6667 3.83325Z" fill="#8B95A6"/>
<path d="M13.6667 6.56006H2.33333C2.05999 6.56006 1.83333 6.33339 1.83333 6.06006C1.83333 5.78673 2.05999 5.56006 2.33333 5.56006H13.6667C13.94 5.56006 14.1667 5.78673 14.1667 6.06006C14.1667 6.33339 13.94 6.56006 13.6667 6.56006Z" fill="#8B95A6"/>
<path d="M10.6667 15.1666H5.33333C2.9 15.1666 1.5 13.7666 1.5 11.3333V5.66659C1.5 3.23325 2.9 1.83325 5.33333 1.83325H10.6667C13.1 1.83325 14.5 3.23325 14.5 5.66659V11.3333C14.5 13.7666 13.1 15.1666 10.6667 15.1666ZM5.33333 2.83325C3.42667 2.83325 2.5 3.75992 2.5 5.66659V11.3333C2.5 13.2399 3.42667 14.1666 5.33333 14.1666H10.6667C12.5733 14.1666 13.5 13.2399 13.5 11.3333V5.66659C13.5 3.75992 12.5733 2.83325 10.6667 2.83325H5.33333Z" fill="#8B95A6"/>
<path d="M5.66667 9.66659C5.58 9.66659 5.49333 9.6466 5.41333 9.61327C5.33333 9.57994 5.26001 9.53325 5.19334 9.47325C5.13334 9.40659 5.08666 9.33326 5.05332 9.25326C5.01999 9.17326 5 9.08659 5 8.99993C5 8.82659 5.07334 8.65327 5.19334 8.5266C5.26001 8.4666 5.33333 8.41992 5.41333 8.38658C5.53333 8.33325 5.66667 8.31992 5.80001 8.34659C5.84001 8.35325 5.88 8.36658 5.92 8.38658C5.96 8.39992 6 8.41994 6.04 8.4466C6.07333 8.47327 6.10666 8.49993 6.13999 8.5266C6.16666 8.55993 6.19999 8.59326 6.21999 8.62659C6.24666 8.66659 6.26668 8.70659 6.28001 8.74659C6.30001 8.78659 6.31334 8.82659 6.32001 8.86659C6.32667 8.91325 6.33333 8.95326 6.33333 8.99993C6.33333 9.17326 6.25999 9.34659 6.13999 9.47325C6.01333 9.59325 5.84 9.66659 5.66667 9.66659Z" fill="#8B95A6"/>
<path d="M7.99999 9.66658C7.82666 9.66658 7.65333 9.59324 7.52667 9.47324C7.5 9.43991 7.47334 9.40658 7.44667 9.37325C7.42 9.33325 7.39999 9.29325 7.38665 9.25325C7.36665 9.21325 7.35332 9.17326 7.34665 9.13326C7.33999 9.08659 7.33333 9.04658 7.33333 8.99992C7.33333 8.91325 7.35332 8.82658 7.38665 8.74658C7.41999 8.66658 7.46667 8.59325 7.52667 8.52659C7.71333 8.33992 8.01333 8.27991 8.25333 8.38657C8.34 8.41991 8.40666 8.46659 8.47332 8.52659C8.59332 8.65325 8.66666 8.82658 8.66666 8.99992C8.66666 9.04658 8.66 9.08659 8.65334 9.13326C8.64667 9.17326 8.63334 9.21325 8.61334 9.25325C8.6 9.29325 8.57999 9.33325 8.55332 9.37325C8.52665 9.40658 8.49999 9.43991 8.47332 9.47324C8.40666 9.53324 8.34 9.57992 8.25333 9.61326C8.17333 9.64659 8.08666 9.66658 7.99999 9.66658Z" fill="#8B95A6"/>
<path d="M5.66667 12.0001C5.58 12.0001 5.49333 11.9801 5.41333 11.9468C5.33333 11.9134 5.26001 11.8667 5.19334 11.8067C5.13334 11.7401 5.08666 11.6734 5.05332 11.5867C5.01999 11.5067 5 11.4201 5 11.3334C5 11.1601 5.07334 10.9868 5.19334 10.8601C5.26001 10.8001 5.33333 10.7534 5.41333 10.7201C5.66 10.6134 5.95333 10.6734 6.13999 10.8601C6.16666 10.8934 6.19999 10.9267 6.21999 10.9601C6.24666 11.0001 6.26668 11.0401 6.28001 11.0801C6.30001 11.1201 6.31334 11.1601 6.32001 11.2067C6.32667 11.2467 6.33333 11.2934 6.33333 11.3334C6.33333 11.5067 6.25999 11.6801 6.13999 11.8067C6.01333 11.9267 5.84 12.0001 5.66667 12.0001Z" fill="#8B95A6"/>
</svg>
