<svg width="16" height="16" viewBox="0 0 16 16" fill="none" xmlns="http://www.w3.org/2000/svg">
<g id="UI icon/more_horizontal/filled">
<path id="Ellipse 31" d="M5.33366 7.99984C5.33366 8.73622 4.73671 9.33317 4.00033 9.33317C3.26395 9.33317 2.66699 8.73622 2.66699 7.99984C2.66699 7.26346 3.26395 6.6665 4.00033 6.6665C4.73671 6.6665 5.33366 7.26346 5.33366 7.99984Z" fill="#635CFF"/>
<path id="Ellipse 32" d="M9.33366 7.99984C9.33366 8.73622 8.73671 9.33317 8.00033 9.33317C7.26395 9.33317 6.66699 8.73622 6.66699 7.99984C6.66699 7.26346 7.26395 6.6665 8.00033 6.6665C8.73671 6.6665 9.33366 7.26346 9.33366 7.99984Z" fill="#635CFF"/>
<path id="Ellipse 33" d="M13.3337 7.99984C13.3337 8.73622 12.7367 9.33317 12.0003 9.33317C11.2639 9.33317 10.667 8.73622 10.667 7.99984C10.667 7.26346 11.2639 6.6665 12.0003 6.6665C12.7367 6.6665 13.3337 7.26346 13.3337 7.99984Z" fill="#635CFF"/>
</g>
</svg>
