<svg width="24" height="24" viewBox="0 0 24 24" fill="none" xmlns="http://www.w3.org/2000/svg">
<path d="M20.83 8.01002L14.28 2.77002C13 1.75002 11 1.74002 9.72996 2.76002L3.17996 8.01002C2.23996 8.76002 1.66996 10.26 1.86996 11.44L3.12996 18.98C3.41996 20.67 4.98996 22 6.69996 22H17.3C18.99 22 20.59 20.64 20.88 18.97L22.14 11.43C22.32 10.26 21.75 8.76002 20.83 8.01002ZM13.5 18C13.0649 18.4895 12.41 18.5 12 18.5C11.59 18.5 10.9351 18.4895 10.5 18C9.72165 17.1244 10 15.5 10.5 15C11 14.5 11.59 14.25 12 14.25C12.41 14.25 13 14.5 13.5 15C14 15.5 14.2783 17.1243 13.5 18Z" fill="#48566D"/>
</svg>
