<svg width="24" height="24" viewBox="0 0 24 24" fill="none" xmlns="http://www.w3.org/2000/svg">
<path d="M21.2407 7.50622L21.2407 7.50619L9.32317 2.25304C9.3231 2.25311 9.32302 2.25317 9.32294 2.25323L2.77457 7.50193C2.77434 7.50211 2.77411 7.5023 2.77387 7.50248C2.19543 7.96426 1.75737 8.63135 1.49012 9.33217C1.22288 10.033 1.10597 10.8212 1.22898 11.5479C1.22902 11.5482 1.22906 11.5484 1.2291 11.5486L2.48885 19.0872L2.48933 19.09C2.8325 21.0898 4.67122 22.65 6.69996 22.65H17.3C19.3101 22.65 21.177 21.0586 21.5204 19.0812L21.5211 19.0772L22.7811 11.5372L22.7811 11.5372L22.7824 11.5289C22.8931 10.8096 22.7708 10.027 22.5046 9.33051C22.2385 8.63412 21.8074 7.96818 21.2407 7.50622ZM13.0142 17.5682C12.7961 17.8135 12.4411 17.85 12 17.85C11.5589 17.85 11.2038 17.8135 10.9858 17.5682C10.7526 17.3059 10.6406 16.8777 10.6694 16.3982C10.6834 16.1672 10.7292 15.9505 10.7919 15.7749C10.8577 15.5901 10.9271 15.4921 10.9596 15.4596C11.3756 15.0437 11.8094 14.9 12 14.9C12.1906 14.9 12.6245 15.0437 13.0404 15.4596C13.0729 15.4921 13.1423 15.59 13.2081 15.7748C13.2708 15.9505 13.3166 16.1672 13.3306 16.3982C13.3594 16.8777 13.2474 17.3058 13.0142 17.5682Z" stroke="#48566D" stroke-width="1.3"/>
</svg>
