<svg width="16" height="16" viewBox="0 0 16 16" fill="none" xmlns="http://www.w3.org/2000/svg">
<path d="M8.10667 7.24658C8.04 7.23992 7.96 7.23992 7.88667 7.24658C6.3 7.19325 5.04 5.89325 5.04 4.29325C5.04 2.65992 6.36 1.33325 8 1.33325C9.63333 1.33325 10.96 2.65992 10.96 4.29325C10.9533 5.89325 9.69333 7.19325 8.10667 7.24658Z" stroke="#8B95A6" stroke-linecap="round" stroke-linejoin="round"/>
<path d="M4.77333 9.70675C3.16 10.7867 3.16 12.5467 4.77333 13.6201C6.60666 14.8467 9.61333 14.8467 11.4467 13.6201C13.06 12.5401 13.06 10.7801 11.4467 9.70675C9.62 8.48675 6.61333 8.48675 4.77333 9.70675Z" stroke="#8B95A6" stroke-linecap="round" stroke-linejoin="round"/>
</svg>
