<svg width="7" height="52" viewBox="0 0 7 52" fill="none" xmlns="http://www.w3.org/2000/svg">
<path d="M3.5 9.5C3.30109 9.5 3.11032 9.42098 2.96967 9.28033C2.82902 9.13968 2.75 8.94891 2.75 8.75C2.75 8.55109 2.82902 8.36032 2.96967 8.21967C3.11032 8.07902 3.30109 8 3.5 8C3.69891 8 3.88968 8.07902 4.03033 8.21967C4.17098 8.36032 4.25 8.55109 4.25 8.75C4.25 8.94891 4.17098 9.13968 4.03033 9.28033C3.88968 9.42098 3.69891 9.5 3.5 9.5ZM3.5 15.5C3.30109 15.5 3.11032 15.421 2.96967 15.2803C2.82902 15.1397 2.75 14.9489 2.75 14.75C2.75 14.5511 2.82902 14.3603 2.96967 14.2197C3.11032 14.079 3.30109 14 3.5 14C3.69891 14 3.88968 14.079 4.03033 14.2197C4.17098 14.3603 4.25 14.5511 4.25 14.75C4.25 14.9489 4.17098 15.1397 4.03033 15.2803C3.88968 15.421 3.69891 15.5 3.5 15.5ZM3.5 21.5C3.30109 21.5 3.11032 21.421 2.96967 21.2803C2.82902 21.1397 2.75 20.9489 2.75 20.75C2.75 20.5511 2.82902 20.3603 2.96967 20.2197C3.11032 20.079 3.30109 20 3.5 20C3.69891 20 3.88968 20.079 4.03033 20.2197C4.17098 20.3603 4.25 20.5511 4.25 20.75C4.25 20.9489 4.17098 21.1397 4.03033 21.2803C3.88968 21.421 3.69891 21.5 3.5 21.5Z" stroke="#B1ADFF" stroke-width="1.5" stroke-linecap="round" stroke-linejoin="round"/>
</svg>
