<svg width="22" height="22" viewBox="0 0 22 22" fill="none" xmlns="http://www.w3.org/2000/svg">
<path fill-rule="evenodd" clip-rule="evenodd" d="M7.97201 16.3973C3.76163 16.3973 0.0604248 13.5977 0.0604248 9.84089C0.0604248 6.09382 3.77357 3.28446 7.97201 3.28446L9.81863 3.28446C10.5057 3.28446 11.6845 3.24733 13.3453 2.83039C15.0307 2.40724 15.8676 2.05963 16.8464 1.46218C17.1285 1.28999 17.4131 1.13658 17.6933 1.03528C17.9738 0.933889 18.2973 0.867098 18.6376 0.923309C19.3825 1.04638 19.7898 1.66372 20.0507 2.30313C20.7442 3.98654 21.1648 5.96398 21.3235 7.99732C21.4351 8.11859 21.5297 8.26401 21.6065 8.41762C21.8164 8.83734 21.9396 9.39911 21.9396 10.004C21.9396 10.6052 21.8156 11.174 21.607 11.5913C21.5247 11.7558 21.421 11.9114 21.2976 12.0378C21.1219 13.9639 20.7092 15.8287 20.0502 17.428L20.0488 17.4312C20.0222 17.495 19.996 17.5584 19.9703 17.6206L19.9702 17.6206C19.8778 17.8441 19.7914 18.0531 19.711 18.2194C19.6143 18.4193 19.4653 18.6959 19.2055 18.8862C18.8888 19.1182 18.5414 19.1352 18.2482 19.0793C17.9915 19.0303 17.7182 18.915 17.4548 18.7944C17.1724 18.6651 16.8598 18.5059 16.5393 18.3418L16.4659 18.3042L16.4655 18.304C16.1628 18.1489 15.848 17.9877 15.5199 17.8292C14.8073 17.4849 14.0678 17.1715 13.3491 16.9951C11.7664 16.6066 10.4499 16.3973 9.81863 16.3973H7.97201ZM21.3828 10.6581C21.4192 10.4546 21.4396 10.234 21.4396 10.004C21.4396 9.79081 21.4224 9.58703 21.3913 9.39774C21.3943 9.55349 21.3958 9.70924 21.3958 9.86491C21.3958 10.1292 21.3915 10.3937 21.3828 10.6581ZM1.56042 9.84089C1.56042 12.4906 4.28077 14.8973 7.97201 14.8973H8.24107C7.53295 12.7986 6.81402 8.78033 7.99952 4.78446H7.97201C4.29271 4.78446 1.56042 7.20089 1.56042 9.84089ZM13.7067 15.5383C12.1229 15.1496 10.6672 14.9014 9.83875 14.8974C9.14088 13.1707 8.19661 8.88323 9.57249 4.78446L9.81863 4.78446C10.5877 4.78446 11.8961 4.74076 13.7105 4.28524C15.5002 3.83594 16.4871 3.43881 17.6279 2.74252C17.8757 2.59128 18.0613 2.49725 18.2033 2.44592C18.3126 2.40639 18.3677 2.4027 18.386 2.40289C18.4202 2.42647 18.5213 2.52514 18.6622 2.87075L18.6633 2.87333C19.4769 4.84769 19.8958 7.34212 19.8958 9.86491C19.8958 12.387 19.4771 14.8807 18.664 16.8548C18.6299 16.9364 18.5991 17.0108 18.5709 17.0791L18.5709 17.0791C18.4862 17.2838 18.4245 17.4328 18.3666 17.5538C18.2964 17.5267 18.2032 17.4873 18.0793 17.4306C17.8318 17.3172 17.5483 17.1732 17.2229 17.0066L17.1475 16.968C16.8469 16.814 16.5171 16.6451 16.1724 16.4786C15.4279 16.1189 14.5776 15.7521 13.7067 15.5383ZM18.3734 2.39652C18.3734 2.39597 18.3769 2.39694 18.3833 2.4011C18.3765 2.39914 18.3733 2.39707 18.3734 2.39652Z" fill="#48566D"/>
<path d="M9.16231 15.2242C9.40394 16.4556 9.72007 17.646 10.1031 18.7865C10.339 19.4905 10.462 20.4094 9.66086 20.7206C8.85968 21.0318 8.86386 20.9995 8.86386 20.9995C8.11809 21.192 7.66047 21.1493 7.40546 20.4094C6.80022 18.6546 6.55214 17.3121 6.03015 15.7461" stroke="#48566D" stroke-width="1.5" stroke-linecap="round" stroke-linejoin="round"/>
</svg>
